<svg width="72" height="46" viewBox="0 0 72 46" fill="none" xmlns="http://www.w3.org/2000/svg">
<path d="M33.241 30.7696C30.9138 35.3471 26.9515 39.8714 21.5441 41.3203C13.7422 43.4108 5.75549 38.9069 3.70824 31.2665C1.66098 23.626 6.32573 15.7322 14.1276 13.6416C25.3721 10.6287 36 22.6139 36 22.6139C36 22.6139 46.6279 34.5991 57.8724 31.5862C65.6743 29.4956 70.339 21.6018 68.2918 13.9613C66.2445 6.32088 58.2578 1.81699 50.4559 3.90751C45.0485 5.35643 41.0862 9.88068 38.759 14.4582" stroke="url(#paint0_linear_76_471)" stroke-width="4.47735" stroke-miterlimit="10" stroke-linecap="round"/>
<circle cx="17.6917" cy="27.5197" r="3.73113" transform="rotate(-15 17.6917 27.5197)" fill="url(#paint1_linear_76_471)"/>
<circle cx="54.0199" cy="17.7855" r="3.73113" transform="rotate(-15 54.0199 17.7855)" fill="url(#paint2_linear_76_471)"/>
<defs>
<linearGradient id="paint0_linear_76_471" x1="68.7593" y1="2.09271" x2="10.9268" y2="43.5082" gradientUnits="userSpaceOnUse">
<stop stop-color="#24EBDA"/>
<stop offset="0.542822" stop-color="#124B56"/>
<stop offset="1" stop-color="#172052"/>
</linearGradient>
<linearGradient id="paint1_linear_76_471" x1="24.189" y1="26.3134" x2="11.0776" y2="28.8261" gradientUnits="userSpaceOnUse">
<stop stop-color="#143C55"/>
<stop offset="1" stop-color="#143B54"/>
</linearGradient>
<linearGradient id="paint2_linear_76_471" x1="61.686" y1="15.15" x2="42.6676" y2="21.256" gradientUnits="userSpaceOnUse">
<stop stop-color="#1EB6AE"/>
<stop offset="1" stop-color="#145861"/>
</linearGradient>
</defs>
</svg>
